<svg width="24" height="24" viewBox="0 0 17 12" fill="none" xmlns="http://www.w3.org/2000/svg">
    <path d="M8.5 3.33333C7.02724 3.33333 5.83333 4.52724 5.83333 6C5.83333 7.47276 7.02724 8.66667 8.5 8.66667C9.97276 8.66667 11.1667 7.47276 11.1667 6C11.1667 4.52724 9.97276 3.33333 8.5 3.33333ZM7.16667 6C7.16667 5.26362 7.76362 4.66667 8.5 4.66667C9.23638 4.66667 9.83333 5.26362 9.83333 6C9.83333 6.73638 9.23638 7.33333 8.5 7.33333C7.76362 7.33333 7.16667 6.73638 7.16667 6Z" fill="#00008C"/>
    <path d="M8.5 0C6.268 0 4.44634 1.11594 3.12845 2.34596C1.81017 3.57636 0.932341 4.97794 0.570382 5.70186C0.476539 5.88954 0.476539 6.11046 0.570382 6.29814C0.932341 7.02206 1.81017 8.42364 3.12845 9.65404C4.44634 10.8841 6.268 12 8.5 12C10.732 12 12.5537 10.8841 13.8715 9.65404C15.1898 8.42364 16.0677 7.02206 16.4296 6.29814C16.5235 6.11046 16.5235 5.88954 16.4296 5.70186C16.0677 4.97794 15.1898 3.57636 13.8715 2.34596C12.5537 1.11594 10.732 0 8.5 0ZM4.03821 8.6793C3.02491 7.73355 2.30049 6.66857 1.92247 6C2.30049 5.33142 3.02491 4.26645 4.03821 3.3207C5.22033 2.2174 6.732 1.33333 8.5 1.33333C10.268 1.33333 11.7797 2.2174 12.9618 3.3207C13.9751 4.26645 14.6995 5.33142 15.0775 6C14.6995 6.66857 13.9751 7.73355 12.9618 8.6793C11.7797 9.78261 10.268 10.6667 8.5 10.6667C6.732 10.6667 5.22033 9.78261 4.03821 8.6793Z" fill="#00008C"/>
</svg>